<mxfile host="app.diagrams.net" agent="Mozilla/5.0 (Windows NT 10.0; Win64; x64) AppleWebKit/537.36 (KHTML, like Gecko) Chrome/132.0.0.0 Safari/537.36 OPR/117.0.0.0" version="26.0.16">
  <diagram name="Página-1" id="NnOSrF8mB_ORM8Gvcp-S">
    <mxGraphModel dx="1380" dy="1942" grid="1" gridSize="10" guides="1" tooltips="1" connect="1" arrows="1" fold="1" page="1" pageScale="1" pageWidth="827" pageHeight="1169" math="0" shadow="0">
      <root>
        <mxCell id="0" />
        <mxCell id="1" parent="0" />
        <mxCell id="djkP2YzQADKERzXVCmnQ-23" style="edgeStyle=orthogonalEdgeStyle;rounded=0;orthogonalLoop=1;jettySize=auto;html=1;exitX=1;exitY=0.5;exitDx=0;exitDy=0;" edge="1" parent="1" source="djkP2YzQADKERzXVCmnQ-24" target="djkP2YzQADKERzXVCmnQ-28">
          <mxGeometry relative="1" as="geometry" />
        </mxCell>
        <mxCell id="djkP2YzQADKERzXVCmnQ-24" value="INICIO" style="ellipse;whiteSpace=wrap;html=1;" vertex="1" parent="1">
          <mxGeometry x="10" y="-70" width="120" height="80" as="geometry" />
        </mxCell>
        <mxCell id="djkP2YzQADKERzXVCmnQ-25" style="edgeStyle=orthogonalEdgeStyle;rounded=0;orthogonalLoop=1;jettySize=auto;html=1;exitX=0.5;exitY=0;exitDx=0;exitDy=0;" edge="1" parent="1" source="djkP2YzQADKERzXVCmnQ-26" target="djkP2YzQADKERzXVCmnQ-35">
          <mxGeometry relative="1" as="geometry">
            <mxPoint x="545" y="260" as="targetPoint" />
          </mxGeometry>
        </mxCell>
        <mxCell id="djkP2YzQADKERzXVCmnQ-26" value="BOTAO DE ATIVAR / DESATIVAR" style="rounded=1;whiteSpace=wrap;html=1;" vertex="1" parent="1">
          <mxGeometry x="790" y="-220" width="230" height="60" as="geometry" />
        </mxCell>
        <mxCell id="djkP2YzQADKERzXVCmnQ-27" style="edgeStyle=orthogonalEdgeStyle;rounded=0;orthogonalLoop=1;jettySize=auto;html=1;exitX=1;exitY=0.5;exitDx=0;exitDy=0;" edge="1" parent="1" source="djkP2YzQADKERzXVCmnQ-28" target="djkP2YzQADKERzXVCmnQ-31">
          <mxGeometry relative="1" as="geometry" />
        </mxCell>
        <mxCell id="djkP2YzQADKERzXVCmnQ-28" value="CADASTRAR MARCA" style="rounded=1;whiteSpace=wrap;html=1;" vertex="1" parent="1">
          <mxGeometry x="180" y="140" width="120" height="60" as="geometry" />
        </mxCell>
        <mxCell id="djkP2YzQADKERzXVCmnQ-29" style="edgeStyle=orthogonalEdgeStyle;rounded=0;orthogonalLoop=1;jettySize=auto;html=1;exitX=1;exitY=0.5;exitDx=0;exitDy=0;" edge="1" parent="1" source="djkP2YzQADKERzXVCmnQ-31" target="djkP2YzQADKERzXVCmnQ-32">
          <mxGeometry relative="1" as="geometry">
            <mxPoint x="670" y="180" as="targetPoint" />
          </mxGeometry>
        </mxCell>
        <mxCell id="djkP2YzQADKERzXVCmnQ-30" style="edgeStyle=orthogonalEdgeStyle;rounded=0;orthogonalLoop=1;jettySize=auto;html=1;exitX=1;exitY=0.5;exitDx=0;exitDy=0;entryX=0;entryY=0.5;entryDx=0;entryDy=0;" edge="1" parent="1" source="djkP2YzQADKERzXVCmnQ-31" target="djkP2YzQADKERzXVCmnQ-43">
          <mxGeometry relative="1" as="geometry" />
        </mxCell>
        <mxCell id="djkP2YzQADKERzXVCmnQ-31" value="ABRE MODAL ONDE SE DEVE CADASTRA UMA MARCA" style="rounded=1;whiteSpace=wrap;html=1;" vertex="1" parent="1">
          <mxGeometry x="340" y="140" width="120" height="60" as="geometry" />
        </mxCell>
        <mxCell id="djkP2YzQADKERzXVCmnQ-32" value="ONDE AO CLICAR EM SALVAR MANDA PARA O BANCO DE DADOS ONDE DA UM INSERT NELE APOS ISSO&amp;nbsp; FECHA O MODAL" style="rounded=1;whiteSpace=wrap;html=1;" vertex="1" parent="1">
          <mxGeometry x="710" y="95" width="130" height="150" as="geometry" />
        </mxCell>
        <mxCell id="djkP2YzQADKERzXVCmnQ-33" style="edgeStyle=orthogonalEdgeStyle;rounded=0;orthogonalLoop=1;jettySize=auto;html=1;exitX=1;exitY=0.5;exitDx=0;exitDy=0;entryX=1;entryY=0.5;entryDx=0;entryDy=0;" edge="1" parent="1" source="djkP2YzQADKERzXVCmnQ-34" target="djkP2YzQADKERzXVCmnQ-26">
          <mxGeometry relative="1" as="geometry" />
        </mxCell>
        <mxCell id="djkP2YzQADKERzXVCmnQ-34" value="CADA MARCA CADASTRADO APARECE OS BOTOES" style="rounded=1;whiteSpace=wrap;html=1;" vertex="1" parent="1">
          <mxGeometry x="410" y="-150" width="120" height="60" as="geometry" />
        </mxCell>
        <mxCell id="djkP2YzQADKERzXVCmnQ-35" value="DESATIVA OU ATIVA A MARCA EM QUESTAO APARECENDO UM ALERTA" style="rounded=1;whiteSpace=wrap;html=1;" vertex="1" parent="1">
          <mxGeometry x="600" y="-320" width="120" height="140" as="geometry" />
        </mxCell>
        <mxCell id="djkP2YzQADKERzXVCmnQ-36" style="edgeStyle=orthogonalEdgeStyle;rounded=0;orthogonalLoop=1;jettySize=auto;html=1;exitX=1;exitY=0.5;exitDx=0;exitDy=0;" edge="1" parent="1" source="djkP2YzQADKERzXVCmnQ-37" target="djkP2YzQADKERzXVCmnQ-38">
          <mxGeometry relative="1" as="geometry">
            <mxPoint x="1110" y="60" as="targetPoint" />
          </mxGeometry>
        </mxCell>
        <mxCell id="djkP2YzQADKERzXVCmnQ-37" value="BOTAO DE EDITAR" style="rounded=1;whiteSpace=wrap;html=1;" vertex="1" parent="1">
          <mxGeometry x="400" y="-30" width="120" height="60" as="geometry" />
        </mxCell>
        <mxCell id="djkP2YzQADKERzXVCmnQ-38" value="ABRE O MODAL DA MARCA PARA FAZER A EDIÇAO DA MARCA DESEJADO QUE APOS CLICAR EM SALVAR MANDA UM UPDATE NO BANCO DE DADOS COM AS INFORMAÇOES ALTERADAS" style="rounded=1;whiteSpace=wrap;html=1;" vertex="1" parent="1">
          <mxGeometry x="660" y="-90" width="120" height="160" as="geometry" />
        </mxCell>
        <mxCell id="djkP2YzQADKERzXVCmnQ-39" style="edgeStyle=orthogonalEdgeStyle;rounded=0;orthogonalLoop=1;jettySize=auto;html=1;exitX=1;exitY=0.5;exitDx=0;exitDy=0;entryX=0;entryY=0.5;entryDx=0;entryDy=0;" edge="1" parent="1" source="djkP2YzQADKERzXVCmnQ-40" target="djkP2YzQADKERzXVCmnQ-34">
          <mxGeometry relative="1" as="geometry" />
        </mxCell>
        <mxCell id="djkP2YzQADKERzXVCmnQ-40" value="APARECE A LISTAGEM DOS MARCAS" style="rounded=1;whiteSpace=wrap;html=1;" vertex="1" parent="1">
          <mxGeometry x="180" width="120" height="60" as="geometry" />
        </mxCell>
        <mxCell id="djkP2YzQADKERzXVCmnQ-41" style="edgeStyle=orthogonalEdgeStyle;rounded=0;orthogonalLoop=1;jettySize=auto;html=1;exitX=0.5;exitY=1;exitDx=0;exitDy=0;entryX=0;entryY=0.5;entryDx=0;entryDy=0;" edge="1" parent="1" source="djkP2YzQADKERzXVCmnQ-42" target="djkP2YzQADKERzXVCmnQ-28">
          <mxGeometry relative="1" as="geometry" />
        </mxCell>
        <mxCell id="djkP2YzQADKERzXVCmnQ-42" value="ONDE TEM UM BOTAO PARA&amp;nbsp;" style="rounded=1;whiteSpace=wrap;html=1;" vertex="1" parent="1">
          <mxGeometry x="50" y="70" width="120" height="60" as="geometry" />
        </mxCell>
        <mxCell id="djkP2YzQADKERzXVCmnQ-43" value="ONDE&amp;nbsp;&lt;div&gt;VERIFICA SE O CAMPO FOI PREENCHIDO&lt;/div&gt;" style="rhombus;whiteSpace=wrap;html=1;" vertex="1" parent="1">
          <mxGeometry x="500" y="102.5" width="150" height="135" as="geometry" />
        </mxCell>
        <mxCell id="djkP2YzQADKERzXVCmnQ-44" style="edgeStyle=orthogonalEdgeStyle;rounded=0;orthogonalLoop=1;jettySize=auto;html=1;exitX=0.5;exitY=1;exitDx=0;exitDy=0;entryX=0.6;entryY=-0.017;entryDx=0;entryDy=0;entryPerimeter=0;" edge="1" parent="1" source="djkP2YzQADKERzXVCmnQ-34" target="djkP2YzQADKERzXVCmnQ-37">
          <mxGeometry relative="1" as="geometry" />
        </mxCell>
      </root>
    </mxGraphModel>
  </diagram>
</mxfile>
